#!OML:ASF E:/inclinewalkrobotboard/Project1/Captureday1/Session1/subject1.ASF
:FULLY-SPECIFIED
:DEGREES
151
root 0 0 0 -1.181159913179742 -2.8441703108376926 -0.8938180544251546
lowerback 10.9422710360523 0.5611397781529389 0.4807059349985457
upperback -1.0926562467541734 0.8804293389159915 0.9223850976142616
thorax -7.262785327902851 0.40442704334813473 0.45566868144514466
lowerneck -13.454087089122043 -1.4297002474105724 0.18662105078661623
upperneck 19.050848262135755 -1.436910686428348 -2.307026025247435
head 8.220628756450388 -0.8232530940420086 -0.9885896162666405
rclavicle -4.650052916168532E-16 -2.0677879406454093E-16
rhumerus -12.139921873647133 -7.0081157871861475 -67.50426701637211
rradius 42.59743239052001
rwrist 11.837419964251458
rhand -23.47840599469978 -4.917378288181316
rfingers 7.125020000000135
rthumb 3.2285422789481237 -35.080953325320955
lclavicle -9.944922693508066E-16 -7.938024072021631E-16
lhumerus -12.864776538002756 -3.9931328806938597 69.03498050241421
lradius 43.291754968575034
lwrist -4.820494048728179
lhand -33.15470207516164 -9.879334608051808
lfingers 7.125020000000132
lthumb -6.454347601879466 19.179383288927802
rfemur -5.618068930572811 2.1706034161976953 27.59011120332427
rtibia 64.07565231544913
rfoot 1.3898539388830748 -1.5553419683175536
rtoes 11.337932711675075
lfemur 4.276313614985847 -5.533732847327814 -27.227065664251196
ltibia 7.038938201503424
lfoot -15.847458812762124 2.3913820025233123
ltoes -1.1676734202079793
152
root 0 0 0 -1.1762848333500946 -2.8452108576048385 -0.8887726731604575
lowerback 10.944001369536892 0.5615087338758941 0.4783567845004983
upperback -1.0985387366901853 0.8806462791018788 0.9197723111046034
thorax -7.270630094319035 0.404657289048412 0.45356902905351437
lowerneck -13.44030195592044 -1.4239043946957541 0.19450572646906872
upperneck 19.050186438462063 -1.4283945903748108 -2.3188048118762072
head 8.218237019509633 -0.8195117276791377 -0.9928576561993585
rclavicle -4.628312478735393E-16 -2.072858747395037E-16
rhumerus -12.09791910894701 -6.980443809698851 -67.47739480002689
rradius 42.63984234797667
rwrist 11.858338607421668
rhand -23.49320998446059 -4.988776580194505
rfingers 7.125020000000135
rthumb 3.2134024134616594 -35.15224074611129
lclavicle -9.897361781292624E-16 -7.964580615649728E-16
lhumerus -12.702618099167587 -4.032181997270585 68.91941320266494
lradius 43.421542799127174
lwrist -4.910188895740253
lhand -33.20944304837387 -10.173169186087968
lfingers 7.125020000000132
lthumb -6.507314952791614 18.88209631289118
rfemur -11.126787516354778 1.1290226017749097 25.125493890629436
rtibia 67.6355354467388
rfoot 3.6353121618901554 -2.2588419728214992
rtoes 11.107021155538312
lfemur 7.078056086188878 -5.372717185380359 -28.279501424309235
ltibia 8.059462056984337
lfoot -15.740970715686498 1.2967113677999702
ltoes -1.605904512569695
153
root 0 0 0 -1.1688246100455695 -2.8468308858425955 -0.8811048533462318
lowerback 10.946693078360179 0.5621347398440248 0.4752138330178873
upperback -1.107529705364211 0.8809380773866576 0.9157230074293666
thorax -7.282666985300518 0.40500613632261395 0.4502884606317447
lowerneck -13.419517164284196 -1.4151257622594793 0.2066924257517358
upperneck 19.04924155742595 -1.4153982791853041 -2.336467447196389
head 8.214573284631784 -0.8138725244344348 -0.9993309691993671
rclavicle -4.605106026847788E-16 -2.1163626757693652E-16
rhumerus -11.996471405058173 -6.913811073690811 -67.41399316394568
rradius 42.73831363750407
rwrist 11.907384664346864
rhand -23.527912903941942 -5.158804679438777
rfingers 7.125020000000134
rthumb 3.177900601170456 -35.32006532131692
lclavicle -9.824413713471405E-16 -8.0032292009126E-16
lhumerus -12.45936901675887 -4.090803616241043 68.74630103118398
lradius 43.616430814812205
lwrist -5.044794930761283
lhand -33.29198632219932 -10.616418374339856
lfingers 7.12502000000013
lthumb -6.587094977802227 18.438394649140164
rfemur -16.349863202264718 0.4108593038556698 22.949586366829035
rtibia 69.07495204238592
rfoot 4.991799678881968 -3.149373765578142
rtoes 10.445235159381134
lfemur 9.33356129623082 -5.16379594213455 -29.08530039114422
ltibia 9.406919132140025
lfoot -15.519970253604102 0.2380572177479694
ltoes -2.074893832763978
154
root 0 0 0 -1.246032553672526 -2.821456339826026 -0.9673275312238925
lowerback 10.915433516018036 0.5516286448769876 0.5073005387247773
upperback -0.999530724662572 0.8773606069739082 0.9611691803014872
thorax -7.146345406301384 0.39972264136647867 0.4910684236869953
lowerneck -13.652779928925238 -1.5165444284312728 0.07598943227968175
upperneck 19.05105893766254 -1.5741367771474926 -2.1414458207919465
head 8.253555789083922 -0.8802494694611022 -0.9243423481117227
rclavicle -4.842739756562118E-16 -5.4763075124251474E-17
rhumerus -13.915585421381794 -8.182705402012745 -68.61238705663168
rradius 40.8818363000607
rwrist 10.984659715835425
rhand -22.877137097062427 -1.9482598860695965
rfingers 7.125020000000143
rthumb 3.8427665870929 -32.15414808863029
lclavicle -1.0297207800192576E-15 -7.790149469988504E-16
lhumerus -14.683497772620562 -3.56216896242466 70.3125261206641
lradius 41.82302249654076
lwrist -3.7813568984741437
lhand -32.54024912348759 -6.456510844110137
lfingers 7.1250200000001405
lthumb -5.860456671326158 22.54249145500383
rfemur -23.010126863378883 -1.5718205365106779 19.813638768560732
rtibia 78.48619514700127
rfoot 9.558678249583139 -3.252101854443862
rtoes 11.556328773087001
lfemur 14.670281023806242 -5.217767659218523 -31.06662441133085
ltibia 10.069839600245427
lfoot -15.079536462359965 -1.7581239403827487
ltoes -2.5935563276931672
